<svg width="97" height="24" viewBox="0 0 97 24" fill="none" xmlns="http://www.w3.org/2000/svg">
<path d="M44.502 17H43.254C43.114 17 42.998 16.966 42.906 16.898C42.818 16.826 42.754 16.738 42.714 16.634L42.066 14.864H38.472L37.824 16.634C37.792 16.726 37.728 16.81 37.632 16.886C37.54 16.962 37.426 17 37.29 17H36.036L39.444 8.324H41.094L44.502 17ZM38.886 13.724H41.652L40.596 10.838C40.548 10.71 40.494 10.56 40.434 10.388C40.378 10.212 40.322 10.022 40.266 9.818C40.21 10.022 40.154 10.212 40.098 10.388C40.046 10.564 39.994 10.718 39.942 10.85L38.886 13.724ZM49.6748 15.812C50.0388 15.812 50.3548 15.78 50.6228 15.716C50.8948 15.648 51.1528 15.556 51.3968 15.44V13.862H50.3108C50.2068 13.862 50.1248 13.834 50.0648 13.778C50.0048 13.718 49.9748 13.646 49.9748 13.562V12.65H52.8608V16.16C52.6408 16.32 52.4108 16.46 52.1708 16.58C51.9348 16.696 51.6808 16.792 51.4088 16.868C51.1408 16.944 50.8528 17 50.5448 17.036C50.2368 17.076 49.9048 17.096 49.5488 17.096C48.9168 17.096 48.3348 16.986 47.8028 16.766C47.2708 16.546 46.8108 16.24 46.4228 15.848C46.0348 15.456 45.7308 14.988 45.5108 14.444C45.2948 13.9 45.1868 13.306 45.1868 12.662C45.1868 12.01 45.2928 11.412 45.5048 10.868C45.7168 10.324 46.0168 9.856 46.4048 9.464C46.7968 9.072 47.2708 8.768 47.8268 8.552C48.3828 8.336 49.0068 8.228 49.6988 8.228C50.4068 8.228 51.0188 8.334 51.5348 8.546C52.0548 8.754 52.4948 9.026 52.8548 9.362L52.3868 10.094C52.2948 10.242 52.1728 10.316 52.0208 10.316C51.9248 10.316 51.8268 10.284 51.7268 10.22C51.5988 10.144 51.4668 10.068 51.3308 9.992C51.1988 9.916 51.0508 9.85 50.8868 9.794C50.7268 9.738 50.5448 9.692 50.3408 9.656C50.1408 9.62 49.9088 9.602 49.6448 9.602C49.2168 9.602 48.8288 9.674 48.4808 9.818C48.1368 9.962 47.8428 10.168 47.5988 10.436C47.3548 10.704 47.1668 11.026 47.0348 11.402C46.9028 11.778 46.8368 12.198 46.8368 12.662C46.8368 13.162 46.9068 13.608 47.0468 14C47.1868 14.388 47.3828 14.716 47.6348 14.984C47.8868 15.252 48.1868 15.458 48.5348 15.602C48.8828 15.742 49.2628 15.812 49.6748 15.812ZM56.6307 13.61V17H55.0167V8.324H57.6627C58.2547 8.324 58.7607 8.386 59.1807 8.51C59.6047 8.63 59.9507 8.8 60.2187 9.02C60.4907 9.24 60.6887 9.504 60.8127 9.812C60.9407 10.116 61.0047 10.452 61.0047 10.82C61.0047 11.112 60.9607 11.388 60.8727 11.648C60.7887 11.908 60.6647 12.144 60.5007 12.356C60.3407 12.568 60.1407 12.754 59.9007 12.914C59.6647 13.074 59.3947 13.202 59.0907 13.298C59.2947 13.414 59.4707 13.58 59.6187 13.796L61.7907 17H60.3387C60.1987 17 60.0787 16.972 59.9787 16.916C59.8827 16.86 59.8007 16.78 59.7327 16.676L57.9087 13.898C57.8407 13.794 57.7647 13.72 57.6807 13.676C57.6007 13.632 57.4807 13.61 57.3207 13.61H56.6307ZM56.6307 12.452H57.6387C57.9427 12.452 58.2067 12.414 58.4307 12.338C58.6587 12.262 58.8447 12.158 58.9887 12.026C59.1367 11.89 59.2467 11.73 59.3187 11.546C59.3907 11.362 59.4267 11.16 59.4267 10.94C59.4267 10.5 59.2807 10.162 58.9887 9.926C58.7007 9.69 58.2587 9.572 57.6627 9.572H56.6307V12.452ZM68.898 8.324V9.608H65.052V12.014H68.082V13.256H65.052V15.71H68.898V17H63.426V8.324H68.898ZM74.8772 15.812C75.2412 15.812 75.5572 15.78 75.8252 15.716C76.0972 15.648 76.3552 15.556 76.5992 15.44V13.862H75.5132C75.4092 13.862 75.3272 13.834 75.2672 13.778C75.2072 13.718 75.1772 13.646 75.1772 13.562V12.65H78.0632V16.16C77.8432 16.32 77.6132 16.46 77.3732 16.58C77.1372 16.696 76.8832 16.792 76.6112 16.868C76.3432 16.944 76.0552 17 75.7472 17.036C75.4392 17.076 75.1072 17.096 74.7512 17.096C74.1192 17.096 73.5372 16.986 73.0052 16.766C72.4732 16.546 72.0132 16.24 71.6252 15.848C71.2372 15.456 70.9332 14.988 70.7132 14.444C70.4972 13.9 70.3892 13.306 70.3892 12.662C70.3892 12.01 70.4952 11.412 70.7072 10.868C70.9192 10.324 71.2192 9.856 71.6072 9.464C71.9992 9.072 72.4732 8.768 73.0292 8.552C73.5852 8.336 74.2092 8.228 74.9012 8.228C75.6092 8.228 76.2212 8.334 76.7372 8.546C77.2572 8.754 77.6972 9.026 78.0572 9.362L77.5892 10.094C77.4972 10.242 77.3752 10.316 77.2232 10.316C77.1272 10.316 77.0292 10.284 76.9292 10.22C76.8012 10.144 76.6692 10.068 76.5332 9.992C76.4012 9.916 76.2532 9.85 76.0892 9.794C75.9292 9.738 75.7472 9.692 75.5432 9.656C75.3432 9.62 75.1112 9.602 74.8472 9.602C74.4192 9.602 74.0312 9.674 73.6832 9.818C73.3392 9.962 73.0452 10.168 72.8012 10.436C72.5572 10.704 72.3692 11.026 72.2372 11.402C72.1052 11.778 72.0392 12.198 72.0392 12.662C72.0392 13.162 72.1092 13.608 72.2492 14C72.3892 14.388 72.5852 14.716 72.8372 14.984C73.0892 15.252 73.3892 15.458 73.7372 15.602C74.0852 15.742 74.4652 15.812 74.8772 15.812ZM87.7911 17H86.5431C86.4031 17 86.2871 16.966 86.1951 16.898C86.1071 16.826 86.0431 16.738 86.0031 16.634L85.3551 14.864H81.7611L81.1131 16.634C81.0811 16.726 81.0171 16.81 80.9211 16.886C80.8291 16.962 80.7151 17 80.5791 17H79.3251L82.7331 8.324H84.3831L87.7911 17ZM82.1751 13.724H84.9411L83.8851 10.838C83.8371 10.71 83.7831 10.56 83.7231 10.388C83.6671 10.212 83.6111 10.022 83.5551 9.818C83.4991 10.022 83.4431 10.212 83.3871 10.388C83.3351 10.564 83.2831 10.718 83.2311 10.85L82.1751 13.724ZM90.9526 13.61V17H89.3386V8.324H91.9846C92.5766 8.324 93.0826 8.386 93.5026 8.51C93.9266 8.63 94.2726 8.8 94.5406 9.02C94.8126 9.24 95.0106 9.504 95.1346 9.812C95.2626 10.116 95.3266 10.452 95.3266 10.82C95.3266 11.112 95.2826 11.388 95.1946 11.648C95.1106 11.908 94.9866 12.144 94.8226 12.356C94.6626 12.568 94.4626 12.754 94.2226 12.914C93.9866 13.074 93.7166 13.202 93.4126 13.298C93.6166 13.414 93.7926 13.58 93.9406 13.796L96.1126 17H94.6606C94.5206 17 94.4006 16.972 94.3006 16.916C94.2046 16.86 94.1226 16.78 94.0546 16.676L92.2306 13.898C92.1626 13.794 92.0866 13.72 92.0026 13.676C91.9226 13.632 91.8026 13.61 91.6426 13.61H90.9526ZM90.9526 12.452H91.9606C92.2646 12.452 92.5286 12.414 92.7526 12.338C92.9806 12.262 93.1666 12.158 93.3106 12.026C93.4586 11.89 93.5686 11.73 93.6406 11.546C93.7126 11.362 93.7486 11.16 93.7486 10.94C93.7486 10.5 93.6026 10.162 93.3106 9.926C93.0226 9.69 92.5806 9.572 91.9846 9.572H90.9526V12.452Z" fill="#6F7DFF"/>
<path opacity="0.6" d="M12 0C5.38338 0 0 5.38292 0 12C0 18.6171 5.38338 24 12 24C18.6166 24 24 18.6171 24 12C24 5.38292 18.6166 0 12 0ZM12 23.0769C5.89246 23.0769 0.923077 18.1075 0.923077 12C0.923077 5.89246 5.89246 0.923077 12 0.923077C18.1075 0.923077 23.0769 5.89246 23.0769 12C23.0769 18.1075 18.1075 23.0769 12 23.0769Z" fill="#939DFF"/>
<path fill-rule="evenodd" clip-rule="evenodd" d="M11.4148 8.23268C11.4148 7.90313 11.6819 7.63672 12.0108 7.63672C12.3396 7.63672 12.6067 7.90313 12.6067 8.23268V11.5155H16.0512C16.38 11.5155 16.6471 11.7819 16.6471 12.1115C16.6471 12.441 16.38 12.7074 16.0512 12.7074H12.6067V16.3135C12.6067 16.643 12.3396 16.9094 12.0108 16.9094C11.6819 16.9094 11.4148 16.643 11.4148 16.3135V12.7074H7.97035C7.64148 12.7074 7.37439 12.441 7.37439 12.1115C7.37439 11.7819 7.64148 11.5155 7.97035 11.5155H11.4148V8.23268Z" fill="#6F7DFF"/>
</svg>
