<svg width="84" height="24" viewBox="0 0 84 24" fill="none" xmlns="http://www.w3.org/2000/svg">
<path d="M45.198 12.662C45.198 13.05 45.158 13.422 45.078 13.778C44.998 14.13 44.882 14.46 44.73 14.768C44.582 15.076 44.4 15.36 44.184 15.62C43.968 15.876 43.722 16.102 43.446 16.298L45.648 18.698H44.316C44.124 18.698 43.95 18.672 43.794 18.62C43.642 18.568 43.502 18.472 43.374 18.332L42.102 16.928C41.898 16.984 41.688 17.026 41.472 17.054C41.26 17.082 41.038 17.096 40.806 17.096C40.15 17.096 39.55 16.986 39.006 16.766C38.466 16.542 38.002 16.232 37.614 15.836C37.23 15.44 36.932 14.972 36.72 14.432C36.508 13.888 36.402 13.298 36.402 12.662C36.402 12.026 36.508 11.438 36.72 10.898C36.932 10.354 37.23 9.884 37.614 9.488C38.002 9.092 38.466 8.784 39.006 8.564C39.55 8.34 40.15 8.228 40.806 8.228C41.462 8.228 42.06 8.34 42.6 8.564C43.14 8.788 43.602 9.098 43.986 9.494C44.37 9.886 44.668 10.354 44.88 10.898C45.092 11.438 45.198 12.026 45.198 12.662ZM43.542 12.662C43.542 12.186 43.478 11.76 43.35 11.384C43.226 11.004 43.046 10.682 42.81 10.418C42.574 10.154 42.286 9.952 41.946 9.812C41.61 9.672 41.23 9.602 40.806 9.602C40.382 9.602 40 9.672 39.66 9.812C39.32 9.952 39.03 10.154 38.79 10.418C38.554 10.682 38.372 11.004 38.244 11.384C38.116 11.76 38.052 12.186 38.052 12.662C38.052 13.138 38.116 13.566 38.244 13.946C38.372 14.322 38.554 14.642 38.79 14.906C39.03 15.166 39.32 15.366 39.66 15.506C40 15.646 40.382 15.716 40.806 15.716C41.23 15.716 41.61 15.646 41.946 15.506C42.286 15.366 42.574 15.166 42.81 14.906C43.046 14.642 43.226 14.322 43.35 13.946C43.478 13.566 43.542 13.138 43.542 12.662ZM50.5657 15.698C50.8777 15.698 51.1557 15.646 51.3997 15.542C51.6477 15.438 51.8557 15.292 52.0237 15.104C52.1957 14.916 52.3257 14.688 52.4137 14.42C52.5057 14.152 52.5517 13.852 52.5517 13.52V8.324H54.1657V13.52C54.1657 14.036 54.0817 14.514 53.9137 14.954C53.7497 15.39 53.5117 15.768 53.1997 16.088C52.8877 16.404 52.5097 16.652 52.0657 16.832C51.6217 17.008 51.1217 17.096 50.5657 17.096C50.0097 17.096 49.5097 17.008 49.0657 16.832C48.6217 16.652 48.2437 16.404 47.9317 16.088C47.6237 15.768 47.3857 15.39 47.2177 14.954C47.0537 14.514 46.9717 14.036 46.9717 13.52V8.324H48.5857V13.514C48.5857 13.846 48.6297 14.146 48.7177 14.414C48.8097 14.682 48.9397 14.912 49.1077 15.104C49.2757 15.292 49.4817 15.438 49.7257 15.542C49.9737 15.646 50.2537 15.698 50.5657 15.698ZM58.2221 17H56.6021V8.324H58.2221V17ZM66.8916 8.324V9.65H64.2816V17H62.6676V9.65H60.0456V8.324H66.8916ZM75.2614 17H74.0134C73.8734 17 73.7574 16.966 73.6654 16.898C73.5774 16.826 73.5134 16.738 73.4734 16.634L72.8254 14.864H69.2314L68.5834 16.634C68.5514 16.726 68.4874 16.81 68.3914 16.886C68.2994 16.962 68.1854 17 68.0494 17H66.7954L70.2034 8.324H71.8534L75.2614 17ZM69.6454 13.724H72.4114L71.3554 10.838C71.3074 10.71 71.2534 10.56 71.1934 10.388C71.1374 10.212 71.0814 10.022 71.0254 9.818C70.9694 10.022 70.9134 10.212 70.8574 10.388C70.8054 10.564 70.7534 10.718 70.7014 10.85L69.6454 13.724ZM78.4229 13.61V17H76.8089V8.324H79.4549C80.0469 8.324 80.5529 8.386 80.9729 8.51C81.3969 8.63 81.7429 8.8 82.0109 9.02C82.2829 9.24 82.4809 9.504 82.6049 9.812C82.7329 10.116 82.7969 10.452 82.7969 10.82C82.7969 11.112 82.7529 11.388 82.6649 11.648C82.5809 11.908 82.4569 12.144 82.2929 12.356C82.1329 12.568 81.9329 12.754 81.6929 12.914C81.4569 13.074 81.1869 13.202 80.8829 13.298C81.0869 13.414 81.2629 13.58 81.4109 13.796L83.5829 17H82.1309C81.9909 17 81.8709 16.972 81.7709 16.916C81.6749 16.86 81.5929 16.78 81.5249 16.676L79.7009 13.898C79.6329 13.794 79.5569 13.72 79.4729 13.676C79.3929 13.632 79.2729 13.61 79.1129 13.61H78.4229ZM78.4229 12.452H79.4309C79.7349 12.452 79.9989 12.414 80.2229 12.338C80.4509 12.262 80.6369 12.158 80.7809 12.026C80.9289 11.89 81.0389 11.73 81.1109 11.546C81.1829 11.362 81.2189 11.16 81.2189 10.94C81.2189 10.5 81.0729 10.162 80.7809 9.926C80.4929 9.69 80.0509 9.572 79.4549 9.572H78.4229V12.452Z" fill="#6F7DFF"/>
<path opacity="0.6" d="M12 0C5.38338 0 0 5.38292 0 12C0 18.6171 5.38338 24 12 24C18.6166 24 24 18.6171 24 12C24 5.38292 18.6166 0 12 0ZM12 23.0769C5.89246 23.0769 0.923077 18.1075 0.923077 12C0.923077 5.89246 5.89246 0.923077 12 0.923077C18.1075 0.923077 23.0769 5.89246 23.0769 12C23.0769 18.1075 18.1075 23.0769 12 23.0769Z" fill="#939DFF"/>
<path fill-rule="evenodd" clip-rule="evenodd" d="M16.0515 11.5154C16.3804 11.5154 16.6475 11.7818 16.6475 12.1113C16.6475 12.4409 16.3804 12.7073 16.0515 12.7073C10.7459 12.7073 12.8946 12.7073 7.97072 12.7073C7.64185 12.7073 7.37476 12.4409 7.37476 12.1113C7.37476 11.7818 7.64185 11.5154 7.97072 11.5154C12.681 11.5154 10.998 11.5154 16.0515 11.5154Z" fill="#6F7DFF"/>
</svg>
